# xmcd
#
# Track frame offsets:
#	150
#	18625
#	21323
#	40010
#	41707
#	63998
#	72151
#	91133
#	103861
#	108485
#	127668
#	142264
#	145567
#	162521
#	187660
#	191094
#	208788
#	242118
#	257590
#	262383
#	284451
#	285976
#	304263
#	309025
#
# Disc length: 4396 seconds
#
# Revision: 1
# Processed by: cddbd v1.5PL3 Copyright (c) Steve Scherf et al.
# Submitted via: audiograbber 1.82.01
#
DISCID=60112a18
DTITLE=Bob Malone - Malone Alone
DYEAR=2003
DGENRE=Blues
TTITLE0=I Know He's Your Husband
TTITLE1=Love among the dysfunctional
TTITLE2=Like it or not
TTITLE3=The worst hotel room
TTITLE4=Gold rush inn
TTITLE5=We'll be here all week (try the veal)
TTITLE6=Sometimes I wish I were me
TTITLE7=I don't like little kids
TTITLE8=Love among the dysfunctional (part 2)
TTITLE9=Valentines day
TTITLE10=Born a Yankee
TTITLE11=Hot tub
TTITLE12=Just 'cause I sing the blues (don't mean I want to)
TTITLE13=You think I'd be over this by now
TTITLE14=Texas law enforcement encounter
TTITLE15=Texas
TTITLE16=Tangled up in blue
TTITLE17=All around the world
TTITLE18=Knish
TTITLE19=Meet me in Manhattan
TTITLE20=It still sucks
TTITLE21=Goodbye L.A.
TTITLE22=Solfeggietto
TTITLE23=Don't tell me where you've been (just show me what you know)
EXTD=
EXTT0=
EXTT1=
EXTT2=
EXTT3=
EXTT4=
EXTT5=
EXTT6=
EXTT7=
EXTT8=
EXTT9=
EXTT10=
EXTT11=
EXTT12=
EXTT13=
EXTT14=
EXTT15=
EXTT16=
EXTT17=
EXTT18=
EXTT19=
EXTT20=
EXTT21=
EXTT22=
EXTT23=
PLAYORDER=
